<svg width="32" height="32" viewBox="0 0 32 32" fill="none" xmlns="http://www.w3.org/2000/svg">
<path d="M15.9857 0.438478C7.15357 0.434907 0 7.58491 0 16.4099C0 23.3885 4.475 29.3206 10.7071 31.4992C11.5464 31.7099 11.4178 31.1135 11.4178 30.7064V27.9384C6.57143 28.5064 6.375 25.2992 6.05 24.7635C5.39285 23.6421 3.83928 23.3563 4.30357 22.8207C5.40714 22.2527 6.53215 22.9635 7.83573 24.8885C8.77859 26.2849 10.6178 26.0492 11.55 25.8171C11.7536 24.9778 12.1893 24.2277 12.7893 23.6456C7.76785 22.7456 5.675 19.6813 5.675 16.0385C5.675 14.2706 6.25714 12.6456 7.4 11.3349C6.67143 9.17418 7.46786 7.32419 7.575 7.04919C9.64998 6.86348 11.8072 8.53494 11.975 8.66705C13.1536 8.34919 14.5 8.18134 16.0072 8.18134C17.5214 8.18134 18.8714 8.35635 20.0607 8.67779C20.4643 8.37059 22.4643 6.93491 24.3928 7.10991C24.4965 7.38491 25.275 9.19208 24.5893 11.3242C25.7464 12.6385 26.3357 14.2778 26.3357 16.0492C26.3357 19.6992 24.2286 22.767 19.1928 23.6527C19.6242 24.077 19.9666 24.5828 20.2003 25.1408C20.4339 25.6988 20.554 26.2978 20.5536 26.9028V30.9206C20.5822 31.2421 20.5536 31.5599 21.0893 31.5599C27.4142 29.4277 31.9678 23.4527 31.9678 16.4135C31.9678 7.5849 24.8107 0.438478 15.9857 0.438478Z" fill="white"/>
</svg>
